<?xml version="1.0" encoding="UTF-8"?>
<!DOCTYPE svg PUBLIC "-//W3C//DTD SVG 1.1//EN" "http://www.w3.org/Graphics/SVG/1.1/DTD/svg11.dtd">
<!-- Creator: CorelDRAW 2019 (64 Bit Versão de avaliação) -->
<svg xmlns="http://www.w3.org/2000/svg" xml:space="preserve" width="210mm" height="297mm" version="1.1" style="shape-rendering:geometricPrecision; text-rendering:geometricPrecision; image-rendering:optimizeQuality; fill-rule:evenodd; clip-rule:evenodd"
viewBox="0 0 21000 29700"
 xmlns:xlink="http://www.w3.org/1999/xlink">
 <defs>
  <style type="text/css">
   <![CDATA[
    .fil0 {fill:#815AA4}
   ]]>
  </style>
 </defs>
 <g id="Camada_x0020_1">
  <metadata id="CorelCorpID_0Corel-Layer"/>
  <path class="fil0" d="M261.27 12985.02l9052.44 -5156.61c358.97,-215.66 815.96,42.94 815.96,461.71l0 2159.64c142.04,20.96 283.99,42.16 425.99,63.37 1181.99,167.47 2367.79,470.7 3488.01,881.34 1981.46,726.35 3828.23,1914.69 5107.1,3615.57 1330.79,1769.91 1965.63,4034.99 1831.68,6239.5 -0.12,2.26 -0.29,4.51 -0.41,6.85 -25.35,400.15 -366.02,706.95 -766.66,692.43 -8.45,-0.29 -16.82,-0.62 -25.18,-0.94 -329.31,-11.89 -612.81,-239.12 -692.51,-558.88 -1.44,-5.87 -2.79,-11.24 -4.06,-16 -225.63,-865.68 -595.01,-1698.79 -1101.11,-2437.15 -861.41,-1256.76 -2132.03,-2129.86 -3608.23,-2499.98 -1490.3,-373.69 -3015.96,-275.83 -4514.51,-16.41 -91.42,15.83 -140.15,24.24 -140.15,24.24l0 2159.64c0,418.77 -457,677.37 -815.96,461.67l-9052.4 -5156.61c-348.35,-209.22 -348.35,-714.12 0,-923.38z"/>
  <g id="_2439463613680">
  </g>
  <g id="_2439463623152">
  </g>
  <g id="_2439463623856">
  </g>
  <g id="_2439463623920">
  </g>
  <g id="_2439463622256">
  </g>
  <g id="_2439463621264">
  </g>
  <g id="_2439463620144">
  </g>
  <g id="_2439463620336">
  </g>
  <g id="_2439463620944">
  </g>
  <g id="_2439463622032">
  </g>
  <g id="_2439463619696">
  </g>
  <g id="_2439463619568">
  </g>
  <g id="_2439463618640">
  </g>
  <g id="_2439463618256">
  </g>
  <g id="_2439463616400">
  </g>
 </g>
</svg>
